Coordinates
version=1
nRows=29
nColumns=22
inDegrees=yes

Units are S.I. units (second, meters, Newtons, ...)
If the header above contains a line with 'inDegrees', this indicates whether rotational values are in degrees (yes) or radians (no).

endheader
time	pelvis_tilt	pelvis_list	pelvis_rotation	pelvis_tx	pelvis_ty	pelvis_tz	hip_flexion_r	hip_adduction_r	hip_rotation_r	knee_angle_r	ankle_angle_r	subtalar_angle_r	hip_flexion_l	hip_adduction_l	hip_rotation_l	knee_angle_l	ankle_angle_l	subtalar_angle_l	lumbar_extension	lumbar_bending	lumbar_rotation
      3.82000000	     -1.76755548	      7.29740363	    152.95004804	      0.43716094	      0.92184627	     -0.53263150	      2.73581215	      1.87395210	     -4.09546774	    -20.06822679	      6.31764531	      6.22987274	     18.93470218	     -5.89287282	     -7.97640347	    -71.29178309	     -4.26675929	     -6.81542411	    -10.46084616	      0.25620268	      4.98152768
      3.83000000	     -2.09587764	      7.07071209	    153.41609183	      0.43045520	      0.92248316	     -0.53579968	      1.84613867	      1.54774094	     -4.39941078	    -19.81184074	      6.69834504	      6.10158709	     19.70950234	     -5.97099719	     -8.93146632	    -70.27534262	     -3.06640128	     -6.91076934	    -10.65424246	     -0.12773094	      5.42822734
      3.84000000	     -2.38830780	      6.88955131	    153.88182846	      0.42372809	      0.92301328	     -0.53893108	      0.93701460	      1.28839386	     -4.73686337	    -19.50202375	      7.04580958	      5.99230223	     20.41195428	     -6.15329048	     -9.90601032	    -69.04394451	     -1.88867458	     -7.09910209	    -10.83878760	     -0.45585132	      5.84337381
      3.85000000	     -2.63452289	      6.74462389	    154.35630888	      0.41694150	      0.92340958	     -0.54200199	      0.02921475	      1.09110351	     -5.10122093	    -19.15359303	      7.36928015	      5.92303743	     21.05704942	     -6.41954900	    -10.88888520	    -67.60416175	     -0.77735460	     -7.36464467	    -10.99332524	     -0.72495952	      6.21697673
      3.86000000	     -2.84361816	      6.62355299	    154.83482754	      0.41007744	      0.92368361	     -0.54499854	     -0.87873897	      0.93752029	     -5.49105775	    -18.76556282	      7.67457254	      5.89126830	     21.63276734	     -6.73525107	    -11.88008955	    -65.94636863	      0.25851901	     -7.70349840	    -11.12276948	     -0.95410302	      6.55786926
      3.87000000	     -3.03033100	      6.51331464	    155.31020371	      0.40309057	      0.92384867	     -0.54791849	     -1.78731382	      0.80648160	     -5.89010541	    -18.35739355	      7.96770552	      5.89192621	     22.11612636	     -7.07259311	    -12.90465477	    -64.06046093	      1.20696003	     -8.10818311	    -11.22746286	     -1.16093923	      6.86085135
      3.88000000	     -3.19384404	      6.40254518	    155.77037610	      0.39600385	      0.92390796	     -0.55074331	     -2.68645291	      0.68558338	     -6.28518788	    -17.92727879	      8.24809021	      5.92008662	     22.50751914	     -7.40123995	    -13.95850279	    -61.93869847	      2.04978187	     -8.55703615	    -11.30843570	     -1.35964252	      7.16291772
      3.89000000	     -3.33736961	      6.28647990	    156.19840865	      0.38882218	      0.92385161	     -0.55347922	     -3.55649461	      0.56672296	     -6.64777256	    -17.51539005	      8.52980363	      5.96730208	     22.79683121	     -7.71826527	    -15.08518451	    -59.58385237	      2.77802207	     -8.99958358	    -11.36330916	     -1.55532587	      7.45184602
      3.90000000	     -3.45866343	      6.16388673	    156.58702050	      0.38157609	      0.92368047	     -0.55611290	     -4.38913343	      0.44730205	     -6.96599508	    -17.12643453	      8.79873303	      6.02505608	     22.98838708	     -8.01249989	    -16.28924600	    -57.00326400	      3.36504880	     -9.41933429	    -11.39507750	     -1.75137121	      7.74626827
      3.91000000	     -3.55904356	      6.03262979	    156.92187064	      0.37427476	      0.92338350	     -0.55863927	     -5.16721904	      0.31889266	     -7.22071531	    -16.79438205	      9.07079854	      6.08569853	     23.08059445	     -8.28547849	    -17.61320670	    -54.21569495	      3.80140413	     -9.78037555	    -11.40358938	     -1.94786540	      8.03874492
      3.92000000	     -3.64073117	      5.90060778	    157.21438532	      0.36690563	      0.92297727	     -0.56103914	     -5.90962165	      0.18813597	     -7.42901342	    -16.49243966	      9.32631674	      6.14901094	     23.07744994	     -8.52116400	    -19.03042339	    -51.23857993	      4.06870473	    -10.09350039	    -11.39573242	     -2.14136802	      8.35027007
      3.93000000	     -3.71986085	      5.77944498	    157.48684452	      0.35941079	      0.92247235	     -0.56326650	     -6.63848735	      0.05584995	     -7.61639046	    -16.22922807	      9.55365400	      6.22140084	     22.97019739	     -8.72161555	    -20.56397803	    -48.11031982	      4.19456440	    -10.36051893	    -11.38877492	     -2.31131612	      8.62473288
      3.94000000	     -3.77426348	      5.65703560	    157.71784806	      0.35180221	      0.92183627	     -0.56536090	     -7.32391720	     -0.08375124	     -7.77083813	    -16.00699538	      9.79210154	      6.29855509	     22.79375077	     -8.87886615	    -22.21676100	    -44.85923764	      4.19791377	    -10.52897212	    -11.35004478	     -2.47371041	      8.92784358
      3.95000000	     -3.79116613	      5.53282880	    157.91149328	      0.34408561	      0.92103865	     -0.56730081	     -7.94342735	     -0.22894739	     -7.88257877	    -15.84345807	     10.06283720	      6.37788549	     22.58396303	     -9.00430168	    -24.02361628	    -41.54353054	      4.10229666	    -10.58997214	    -11.26706174	     -2.61705202	      9.20379185
      3.96000000	     -3.79921759	      5.42661486	    158.10373608	      0.33622069	      0.92014010	     -0.56903038	     -8.55621551	     -0.37127464	     -8.01408722	    -15.69880997	     10.29924268	      6.47652398	     22.32935507	     -9.07807344	    -25.91878896	    -38.20142013	      3.98158670	    -10.57127109	    -11.17777962	     -2.72565438	      9.45634938
      3.97000000	     -3.80350880	      5.34251434	    158.29912637	      0.32821792	      0.91915454	     -0.57054018	     -9.16986692	     -0.50985233	     -8.18131344	    -15.56965258	     10.49852620	      6.61014725	     22.04869860	     -9.09760122	    -27.87021867	    -34.88414941	      3.87535014	    -10.45894131	    -11.09052464	     -2.79796974	      9.68254421
      3.98000000	     -3.74065550	      5.26090211	    158.47003129	      0.32015800	      0.91797843	     -0.57185059	     -9.68252528	     -0.64272072	     -8.30942378	    -15.50687453	     10.74539808	      6.75341448	     21.84789362	     -9.08767199	    -29.87697146	    -31.67034590	      3.78677546	    -10.26299775	    -10.93631962	     -2.82978626	      9.87102060
      3.99000000	     -3.67844199	      5.20853794	    158.64579202	      0.31198678	      0.91675215	     -0.57294664	    -10.19978802	     -0.76971616	     -8.47914473	    -15.46191783	     10.91293930	      6.95248765	     21.65910286	     -9.02730334	    -31.82208560	    -28.58120355	      3.78078918	     -9.96332961	    -10.79262634	     -2.82440946	     10.04427225
      4.00000000	     -3.55140864	      5.17189663	    158.79465663	      0.30380666	      0.91536980	     -0.57386222	    -10.61543682	     -0.88066005	     -8.59465253	    -15.49107713	     11.09476368	      7.17123165	     21.58153981	     -8.95843657	    -33.67910957	    -25.69040440	      3.84120305	     -9.60057557	    -10.59523551	     -2.77291103	     10.19244225
      4.01000000	     -3.36773836	      5.16309334	    158.91419449	      0.29562637	      0.91386972	     -0.57461522	    -10.94187681	     -0.96824545	     -8.66097880	    -15.59022243	     11.25028866	      7.40676754	     21.60606579	     -8.89773584	    -35.35942554	    -23.02676497	      3.98197235	     -9.19519785	    -10.35787732	     -2.66976190	     10.34105874
      4.02000000	     -3.13915962	      5.19008643	    159.00261662	      0.28741662	      0.91229724	     -0.57527152	    -11.19823957	     -1.02717132	     -8.69050429	    -15.75496363	     11.35888135	      7.64773725	     21.71115881	     -8.87053728	    -36.81342538	    -20.62387707	      4.20353134	     -8.78160166	    -10.08650731	     -2.52449863	     10.52288871
      4.03000000	     -2.90958737	      5.25871724	    159.07531230	      0.27916869	      0.91073307	     -0.57580945	    -11.43201624	     -1.06382975	     -8.66255916	    -15.98558424	     11.39051393	      7.91753259	     21.84344993	     -8.88223853	    -38.02914603	    -18.51296110	      4.50603235	     -8.34657611	     -9.83980133	     -2.34049479	     10.66441149
      4.04000000	     -2.69512180	      5.36438377	    159.13217121	      0.27076631	      0.90923494	     -0.57631163	    -11.70581758	     -1.08267914	     -8.59103327	    -16.20017898	     11.37299617	      8.26569991	     21.96551881	     -8.94644666	    -39.01340889	    -16.72100853	      4.84357878	     -7.86603793	     -9.60827254	     -2.14174560	     10.83389401
      4.05000000	     -2.49932668	      5.50650060	    159.17855903	      0.26222326	      0.90782644	     -0.57677251	    -12.00501997	     -1.08265992	     -8.46510362	    -16.43077497	     11.26493841	      8.62544624	     22.07968950	     -9.08865351	    -39.80860387	    -15.31466372	      5.22214686	     -7.46622605	     -9.40533558	     -1.92673010	     10.99498215
      4.06000000	     -2.34900282	      5.67863376	    159.21942722	      0.25344278	      0.90656317	     -0.57721933	    -12.37407977	     -1.07991409	     -8.30227654	    -16.65289319	     11.07964661	      9.03494061	     22.14351750	     -9.30621884	    -40.45878686	    -14.31602359	      5.60359286	     -7.13808827	     -9.23795274	     -1.71727344	     11.17913005
      4.07000000	     -2.25722718	      5.84984012	    159.27368616	      0.24436547	      0.90546682	     -0.57760601	    -12.81290626	     -1.11045958	     -8.13610006	    -16.87760231	     10.80273780	      9.55782606	     22.14233926	     -9.55831522	    -40.98513927	    -13.72879306	      5.95569819	     -6.88135225	     -9.10519804	     -1.54379338	     11.35555431
      4.08000000	     -2.20822646	      6.02803207	    159.30233692	      0.23499759	      0.90452926	     -0.57801045	    -13.30960236	     -1.15717331	     -7.87647084	    -17.09268313	     10.46877271	      9.89334315	     22.09380852	     -9.90075611	    -41.53686535	    -13.61478165	      6.30937525	     -6.84890793	     -8.98743635	     -1.40002460	     11.57740349
      4.09000000	     -2.24378732	      6.17278363	    159.36565782	      0.22523411	      0.90379685	     -0.57829395	    -13.88492311	     -1.28280884	     -7.66122493	    -17.32970340	     10.01287242	     10.51096370	     21.94309129	    -10.22135652	    -42.04713246	    -13.87801651	      6.56567981	     -6.90755215	     -8.90871237	     -1.32953351	     11.77505247
      4.10000000	     -2.32434220	      6.29534829	    159.43377383	      0.21510221	      0.90321837	     -0.57848494	    -14.49010293	     -1.45452924	     -7.37938504	    -17.60507777	      9.49895303	     10.98095552	     21.71982179	    -10.54851740	    -42.56538961	    -14.48788383	      6.77592358	     -7.12895240	     -8.82922751	     -1.30376458	     11.97454756
